<svg width="24" height="24" viewBox="0 0 24 24" fill="none" xmlns="http://www.w3.org/2000/svg">
<path d="M2 20.5H22M12 6.5V3.5M12 3.5H9.5M12 3.5H14.5M3.052 14.775C3.519 14.479 3.993 14.05 4.062 13.502C4.30603 11.5689 5.24708 9.79127 6.70857 8.50268C8.17007 7.21408 10.0516 6.50308 12 6.50308C13.9484 6.50308 15.8299 7.21408 17.2914 8.50268C18.7529 9.79127 19.694 11.5689 19.938 13.502C20.007 14.05 20.481 14.479 20.948 14.775C21.361 15.037 21.661 15.467 21.747 15.98L22 17H2L2.253 15.98C2.29399 15.7341 2.38644 15.4997 2.5243 15.2921C2.66216 15.0844 2.84133 14.9082 3.052 14.775Z" stroke="white" stroke-width="1.5" stroke-linecap="round" stroke-linejoin="round"/>
</svg>
