<svg width="35" height="35" viewBox="0 0 35 35" fill="none" xmlns="http://www.w3.org/2000/svg">
<g clip-path="url(#clip0_404_7593)">
<path d="M34.2344 9.07813C33.7969 7.54688 32.7031 6.34375 31.1719 6.01562C28.4375 5.25 17.5 5.25 17.5 5.25C17.5 5.25 6.5625 5.25 3.82813 5.90625C2.40625 6.34375 1.20313 7.54688 0.765625 9.07813C0.109375 11.8125 0.109375 17.5 0.109375 17.5C0.109375 17.5 0.109375 23.1875 0.875 25.9219C1.3125 27.4531 2.40625 28.6563 3.9375 28.9844C6.5625 29.75 17.5 29.75 17.5 29.75C17.5 29.75 28.4375 29.75 31.1719 28.9844C32.7031 28.5469 33.9063 27.3438 34.2344 25.9219C35 23.1875 35 17.5 35 17.5C35 17.5 34.8906 11.8125 34.2344 9.07813Z" fill="#1C1C1C"/>
<path d="M13.8911 22.6406V12.3594L23.0786 17.5L13.8911 22.6406Z" fill="#F6F6F2"/>
</g>
<defs>
<clipPath id="clip0_404_7593">
<rect width="35" height="35" fill="white"/>
</clipPath>
</defs>
</svg>
