<svg width="29" height="29" viewBox="0 0 29 29" fill="none" xmlns="http://www.w3.org/2000/svg">
<g clip-path="url(#clip0_404_7597)">
<path d="M6.646 1.2085L3.021 4.8335L2.41683 5.43766L1.2085 8.4585V21.7502L3.021 25.9793L9.06266 27.7918H21.7502L25.9793 24.1668L27.1877 13.896L25.9793 4.8335L21.7502 1.2085H6.646Z" fill="#1C1C1C"/>
<path d="M14.5002 2.62832C18.3971 2.62832 18.8502 2.62832 20.3002 2.71895C21.7502 2.80957 22.4752 2.99082 23.0189 3.17207C23.6533 3.44395 24.1971 3.71582 24.6502 4.25957C25.1939 4.80332 25.4658 5.25645 25.7377 5.89082C25.9189 6.43457 26.1908 7.15957 26.1908 8.60957C26.2814 10.1502 26.2814 10.6033 26.2814 14.4096C26.2814 18.3064 26.2814 18.7596 26.1908 20.2096C26.1002 21.6596 25.9189 22.3846 25.7377 22.9283C25.4658 23.5627 25.1939 24.1064 24.6502 24.5596C24.1064 25.1033 23.6533 25.3752 23.0189 25.6471C22.4752 25.8283 21.7502 26.1002 20.3002 26.1002C18.7596 26.1908 18.3064 26.1908 14.5002 26.1908C10.6033 26.1908 10.1502 26.1908 8.7002 26.1002C7.2502 26.0096 6.5252 25.8283 5.98145 25.6471C5.34707 25.3752 4.80332 25.1033 4.3502 24.5596C3.80645 24.0158 3.53457 23.5627 3.2627 22.9283C3.08145 22.3846 2.80957 21.6596 2.80957 20.2096C2.71895 18.8502 2.62832 18.3971 2.62832 14.5002C2.62832 10.6033 2.62832 10.1502 2.71895 8.7002C2.80957 7.2502 2.99082 6.5252 3.17207 5.98145C3.44395 5.34707 3.71582 4.80332 4.25957 4.3502C4.80332 3.80645 5.25645 3.53457 5.89082 3.2627C6.5252 3.08145 7.2502 2.80957 8.7002 2.71895C10.1502 2.71895 10.6033 2.62832 14.5002 2.62832ZM14.5002 0.0908203C10.6033 0.0908203 10.0596 0.0908203 8.51895 0.181445C6.97832 0.181445 5.98145 0.45332 5.0752 0.81582C4.16895 1.17832 3.35332 1.72207 2.5377 2.44707C1.72207 3.2627 1.17832 4.07832 0.81582 5.0752C0.45332 5.98145 0.181445 7.06895 0.181445 8.60957C0.0908203 10.1502 0.0908203 10.6033 0.0908203 14.5908C0.0908203 18.4877 0.0908203 19.0314 0.181445 20.5721C0.27207 22.1127 0.45332 23.2002 0.81582 24.1064C1.17832 25.0127 1.72207 25.8283 2.44707 26.6439C3.2627 27.4596 4.07832 27.9127 4.98457 28.2752C5.89082 28.6377 6.97832 28.9096 8.51895 28.9096C10.0596 29.0002 10.5127 29.0002 14.5002 29.0002C18.3971 29.0002 18.9408 29.0002 20.4814 28.9096C22.0221 28.8189 23.1096 28.6377 24.0158 28.2752C24.9221 27.9127 25.7377 27.3689 26.5533 26.6439C27.3689 25.8283 27.8221 25.0127 28.1846 24.1064C28.5471 23.2002 28.8189 22.1127 28.8189 20.5721C28.9096 19.0314 28.9096 18.5783 28.9096 14.5908C28.9096 10.6939 28.9096 10.1502 28.8189 8.60957C28.7283 7.06895 28.5471 5.98145 28.1846 5.0752C27.8221 4.16895 27.2783 3.35332 26.5533 2.5377C25.7377 1.72207 24.9221 1.26895 24.0158 0.906445C23.1096 0.543945 22.0221 0.27207 20.4814 0.27207C18.9408 0.0908203 18.3971 0.0908203 14.5002 0.0908203Z" fill="#1C1C1C"/>
<path d="M14.5006 7.06885C10.4225 7.06885 7.06934 10.422 7.06934 14.5001C7.06934 18.5782 10.4225 21.9313 14.5006 21.9313C18.5787 21.9313 21.9318 18.5782 21.9318 14.5001C21.9318 10.422 18.5787 7.06885 14.5006 7.06885ZM14.5006 19.3032C11.8725 19.3032 9.69746 17.1282 9.69746 14.5001C9.69746 11.872 11.8725 9.69697 14.5006 9.69697C17.1287 9.69697 19.3037 11.872 19.3037 14.5001C19.3037 17.1282 17.1287 19.3032 14.5006 19.3032Z" fill="#F6F6F2"/>
<path d="M23.9257 6.79707C23.9257 7.79395 23.1101 8.51895 22.2038 8.51895C21.2069 8.51895 20.4819 7.70332 20.4819 6.79707C20.4819 5.89082 21.2976 5.0752 22.2038 5.0752C23.2007 5.0752 23.9257 5.8002 23.9257 6.79707Z" fill="#F6F6F2"/>
</g>
<defs>
<clipPath id="clip0_404_7597">
<rect width="29" height="29" fill="white"/>
</clipPath>
</defs>
</svg>
