<svg width="32" height="32" viewBox="0 0 32 32" fill="none" xmlns="http://www.w3.org/2000/svg">
<g clip-path="url(#clip0_404_7604)">
<path d="M30 5.99951H2V18.9995H30V5.99951Z" fill="white"/>
<path d="M27.7 1.19971H4.3C1.9 1.19971 0 3.09971 0 5.39971V19.2997C0 21.6997 1.9 23.5997 4.3 23.5997H12.6L15.4 30.1997C15.4 30.1997 15.6 30.7997 16.1 30.7997C16.6 30.7997 16.8 30.1997 16.8 30.1997L19.6 23.5997H27.8C30.2 23.5997 32.1 21.6997 32.1 19.2997V5.39971C32 3.09971 30.1 1.19971 27.7 1.19971ZM10.1 13.4997C10.1 15.9997 7.5 16.0997 7.5 16.0997C6.5 16.0997 5.9 15.3997 5.9 15.3997V15.8997H3.9V7.99971C4 7.99971 5.8 7.99971 5.8 7.99971V10.9997C6.2 10.1997 7.6 10.1997 7.6 10.1997C10.4 10.4997 10.1 13.4997 10.1 13.4997ZM13.4 10.4997V15.8997H11.5V10.5997C11.5 9.89971 10.6 9.69971 10.6 9.69971V7.69971C13.6 7.79971 13.4 10.4997 13.4 10.4997ZM17.9 16.0997C16.2 16.0997 14.8 14.7997 14.8 13.1997C14.8 11.5997 16.2 10.2997 17.9 10.2997C19.6 10.2997 21 11.5997 21 13.1997C21 14.7997 19.6 16.0997 17.9 16.0997ZM28.1 16.0997C28.1 16.0997 28.1 18.7997 25.3 18.7997H24.5V16.9997H25C25 16.9997 26.2 17.0997 26.2 15.2997C26.2 15.2997 26 15.9997 24.3 15.9997C24.3 15.9997 22 15.7997 22 13.5997V12.6997C22 12.6997 22.1 10.2997 24.6 10.1997C24.6 10.1997 25.6 10.0997 26.2 10.8997V10.2997H28.1V16.0997Z" fill="#1C1C1C"/>
<path d="M7.00039 12.0996C6.40039 12.0996 5.90039 12.5996 5.90039 13.1996C5.90039 13.7996 6.40039 14.2996 7.00039 14.2996C7.60039 14.2996 8.10039 13.7996 8.10039 13.1996C8.10039 12.5996 7.60039 12.0996 7.00039 12.0996Z" fill="#1C1C1C"/>
<path d="M17.9002 11.9995C17.2002 11.9995 16.7002 12.4995 16.7002 13.1995C16.7002 13.8995 17.2002 14.3995 17.9002 14.3995C18.6002 14.3995 19.1002 13.8995 19.1002 13.1995C19.1002 12.4995 18.5002 11.9995 17.9002 11.9995Z" fill="#1C1C1C"/>
<path d="M25.1004 11.9995C24.5004 11.9995 23.9004 12.4995 23.9004 13.1995C23.9004 13.7995 24.4004 14.3995 25.1004 14.3995C25.7004 14.3995 26.3004 13.8995 26.3004 13.1995C26.3004 12.4995 25.8004 11.9995 25.1004 11.9995Z" fill="#1C1C1C"/>
</g>
<defs>
<clipPath id="clip0_404_7604">
<rect width="32" height="32" fill="white"/>
</clipPath>
</defs>
</svg>
