<svg width="12" height="11" viewBox="0 0 12 11" fill="none" xmlns="http://www.w3.org/2000/svg">
<path d="M8.76242 10.8423C8.62776 10.8423 8.49376 10.8009 8.37842 10.7186L5.66676 8.77395L2.95509 10.7186C2.84274 10.7994 2.70773 10.8427 2.56932 10.8422C2.43092 10.8417 2.29621 10.7976 2.18442 10.7159C2.07249 10.6349 1.989 10.5205 1.94585 10.3892C1.9027 10.2579 1.90208 10.1163 1.94409 9.98461L2.95542 6.72061L0.268089 4.82695C0.156716 4.74475 0.0740038 4.62962 0.0316523 4.49784C-0.0106993 4.36606 -0.0105467 4.2243 0.0320887 4.09261C0.0751483 3.9613 0.158341 3.84681 0.269936 3.7653C0.381531 3.68378 0.515898 3.63936 0.654089 3.63828L3.98242 3.63328L5.04209 0.45028C5.08582 0.319155 5.16969 0.205111 5.28183 0.124298C5.39397 0.0434855 5.5287 0 5.66692 0C5.80515 0 5.93987 0.0434855 6.05201 0.124298C6.16415 0.205111 6.24802 0.319155 6.29176 0.45028L7.33342 3.63328L10.6788 3.63828C10.8171 3.63906 10.9518 3.68343 11.0635 3.76508C11.1752 3.84673 11.2584 3.96151 11.3011 4.09311C11.3439 4.22472 11.3441 4.36646 11.3018 4.49819C11.2594 4.62993 11.1766 4.74496 11.0651 4.82695L8.37776 6.72061L9.38909 9.98461C9.43113 10.1163 9.43056 10.2578 9.38747 10.3891C9.34438 10.5204 9.26096 10.6348 9.14909 10.7159C9.03693 10.7981 8.90147 10.8424 8.76242 10.8423Z" fill="#FFAC33"/>
</svg>
