<svg width="12" height="12" viewBox="0 0 12 12" fill="none" xmlns="http://www.w3.org/2000/svg">
<g clip-path="url(#clip0_443_811)">
<path d="M9.09543 11.5422C8.96076 11.5422 8.82676 11.5009 8.71143 11.4186L5.99976 9.4739L3.2881 11.4186C3.17575 11.4994 3.04073 11.5427 2.90233 11.5422C2.76393 11.5417 2.62922 11.4975 2.51743 11.4159C2.4055 11.3348 2.32201 11.2205 2.27886 11.0891C2.23571 10.9578 2.23509 10.8162 2.2771 10.6846L3.28843 7.42056L0.601097 5.5269C0.489724 5.4447 0.407012 5.32957 0.36466 5.19779C0.322309 5.06601 0.322461 4.92425 0.365096 4.79256C0.408156 4.66125 0.491349 4.54676 0.602944 4.46525C0.714539 4.38374 0.848906 4.33931 0.987096 4.33823L4.31543 4.33323L5.3751 1.15023C5.41883 1.01911 5.5027 0.905062 5.61484 0.824249C5.72698 0.743437 5.86171 0.699951 5.99993 0.699951C6.13815 0.699951 6.27288 0.743437 6.38502 0.824249C6.49716 0.905062 6.58103 1.01911 6.62476 1.15023L7.66643 4.33323L11.0118 4.33823C11.1501 4.33901 11.2848 4.38338 11.3965 4.46503C11.5082 4.54668 11.5914 4.66146 11.6341 4.79306C11.6769 4.92467 11.6771 5.06641 11.6348 5.19814C11.5924 5.32988 11.5096 5.44491 11.3981 5.5269L8.71076 7.42056L9.7221 10.6846C9.76414 10.8162 9.76357 10.9578 9.72048 11.0891C9.67739 11.2204 9.59397 11.3348 9.4821 11.4159C9.36994 11.4981 9.23448 11.5423 9.09543 11.5422Z" fill="#1C1C1C"/>
</g>
<defs>
<clipPath id="clip0_443_811">
<rect width="12" height="12" fill="white"/>
</clipPath>
</defs>
</svg>
